# Blender v2.67 (sub 0) OBJ File: ''
# www.blender.org
mtllib cube.mtl
o Cube
v 0.365565 0.629234 -1.571759
v 1.501961 -0.662708 -0.552205
v -0.126344 -1.725398 -0.083897
v -1.262740 -0.433456 -1.103451
v 0.126344 1.725398 0.083897
v 1.262740 0.433456 1.103451
v -0.365566 -0.629234 1.571759
v -1.501961 0.662708 0.552205
vn 0.119611 -0.548082 -0.827828
vn -0.119611 0.548082 0.827828
vn 0.814153 0.531345 -0.234154
vn 0.568198 -0.645971 0.509777
vn -0.814153 -0.531345 0.234154
vn -0.568198 0.645971 -0.509777
usemtl Material
s off
f 1//1 2//1 3//1 4//1
f 5//2 8//2 7//2 6//2
f 1//3 5//3 6//3 2//3
f 2//4 6//4 7//4 3//4
f 3//5 7//5 8//5 4//5
f 5//6 1//6 4//6 8//6
