# Blender v2.69 (sub 0) OBJ File: ''
# www.blender.org
mtllib cube4.mtl
o Cube.001
v -0.827730 -2.296430 -0.421200
v -0.827730 -2.296431 0.421200
v -1.670129 -2.296430 -0.421201
v -0.827729 -1.454031 -0.421200
v -1.670129 -1.454031 -0.421200
v -0.827730 -1.454031 0.421201
v -1.670129 -2.296431 0.421200
v -1.670130 -1.454031 0.421200
vt 0.000000 0.000000
vt 1.000000 0.000000
vt 0.000000 1.000000
vt 1.000000 1.000000
vn 0.000000 -1.000000 -0.000001
vn 0.000000 1.000000 0.000000
vn 1.000000 -0.000001 0.000000
vn 0.000000 -0.000001 1.000000
vn -1.000000 -0.000001 -0.000000
vn 0.000000 0.000000 -1.000000
vn 0.000000 -1.000000 0.000000
vn 1.000000 -0.000000 0.000001
vn -0.000001 -0.000000 1.000000
vn -1.000000 -0.000000 -0.000001
vn 0.000001 0.000001 -1.000000
usemtl Material.001
s off
f 1/1/1 2/2/1 3/3/1
f 4/1/2 5/2/2 6/3/2
f 1/1/3 4/2/3 2/3/3
f 2/1/4 6/2/4 7/3/4
f 7/1/5 8/2/5 3/3/5
f 4/1/6 1/2/6 5/3/6
f 2/2/7 7/4/7 3/3/7
f 5/2/2 8/4/2 6/3/2
f 4/2/8 6/4/8 2/3/8
f 6/2/9 8/4/9 7/3/9
f 8/2/10 5/4/10 3/3/10
f 1/2/11 3/4/11 5/3/11
