# Blender v2.69 (sub 0) OBJ File: ''
# www.blender.org
mtllib cylinder.mtl
o Cylinder
v 0.206060 -0.796244 -0.014093
v 0.206060 -0.199544 -0.014093
v 0.264265 -0.796244 -0.008360
v 0.264265 -0.199544 -0.008360
v 0.320233 -0.796244 0.008618
v 0.320233 -0.199544 0.008618
v 0.371814 -0.796244 0.036188
v 0.371814 -0.199544 0.036188
v 0.417025 -0.796244 0.073292
v 0.417025 -0.199544 0.073292
v 0.454129 -0.796244 0.118503
v 0.454129 -0.199544 0.118503
v 0.481699 -0.796244 0.170084
v 0.481699 -0.199544 0.170084
v 0.498677 -0.796244 0.226052
v 0.498677 -0.199544 0.226052
v 0.504410 -0.796244 0.284257
v 0.504410 -0.199544 0.284257
v 0.498677 -0.796244 0.342463
v 0.498677 -0.199544 0.342463
v 0.481699 -0.796244 0.398431
v 0.481699 -0.199544 0.398431
v 0.454129 -0.796244 0.450012
v 0.454129 -0.199544 0.450012
v 0.417025 -0.796244 0.495223
v 0.417025 -0.199544 0.495223
v 0.371814 -0.796244 0.532327
v 0.371814 -0.199544 0.532327
v 0.320233 -0.796244 0.559897
v 0.320233 -0.199544 0.559897
v 0.264265 -0.796244 0.576875
v 0.264265 -0.199544 0.576875
v 0.206060 -0.796244 0.582608
v 0.206060 -0.199544 0.582608
v 0.147854 -0.796244 0.576875
v 0.147854 -0.199544 0.576875
v 0.091886 -0.796244 0.559897
v 0.091886 -0.199544 0.559897
v 0.040305 -0.796244 0.532326
v 0.040305 -0.199544 0.532326
v -0.004906 -0.796244 0.495223
v -0.004906 -0.199544 0.495223
v -0.042010 -0.796244 0.450012
v -0.042010 -0.199544 0.450012
v -0.069580 -0.796244 0.398431
v -0.069580 -0.199544 0.398431
v -0.086558 -0.796244 0.342462
v -0.086558 -0.199544 0.342462
v -0.092290 -0.796244 0.284257
v -0.092290 -0.199544 0.284257
v -0.086558 -0.796244 0.226052
v -0.086558 -0.199544 0.226052
v -0.069580 -0.796244 0.170083
v -0.069580 -0.199544 0.170083
v -0.042009 -0.796244 0.118503
v -0.042009 -0.199544 0.118503
v -0.004905 -0.796244 0.073292
v -0.004905 -0.199544 0.073292
v 0.040306 -0.796244 0.036188
v 0.040306 -0.199544 0.036188
v 0.091886 -0.796244 0.008618
v 0.091886 -0.199544 0.008618
v 0.147855 -0.796244 -0.008360
v 0.147855 -0.199544 -0.008360
v 0.413832 -0.269166 -0.087711
v 0.554588 -0.498870 -0.213734
vt 0.500000 -0.001240
vt 0.500000 1.001240
vt 0.640471 -0.001240
vt 0.640471 1.001240
vt 0.775544 -0.001240
vt 0.775544 1.001240
vt 0.900028 -0.001240
vt 0.900028 1.001240
vt 1.009139 -0.001240
vt 1.009139 1.001240
vt 0.359529 -0.001240
vt 0.359529 1.001240
vt 0.224456 -0.001240
vt 0.224456 1.001240
vt 0.099972 -0.001240
vt 0.099972 1.001240
vt -0.009139 -0.001240
vt -0.009138 -0.001240
vt -0.009138 1.001240
vt 0.099973 -0.001240
vt 0.099973 1.001240
vt 0.224457 -0.001240
vt 0.224457 1.001240
vt 0.359530 -0.001240
vt 0.359530 1.001240
vt 0.500001 -0.001240
vt 0.500001 1.001240
vt 0.640472 -0.001240
vt 0.640472 1.001240
vt 0.775545 -0.001240
vt 0.775545 1.001240
vt 0.000000 0.000000
vt -0.009139 1.001240
vn 0.098018 0.000000 -0.995185
vn 0.290284 0.000000 -0.956941
vn 0.471397 0.000000 -0.881921
vn 0.634393 0.000000 -0.773010
vn 0.773010 0.000000 -0.634393
vn 0.881921 0.000000 -0.471396
vn 0.956940 0.000000 -0.290285
vn 0.995185 0.000000 -0.098017
vn 0.995185 0.000000 0.098017
vn 0.956941 0.000000 0.290284
vn 0.881921 0.000000 0.471397
vn 0.773010 0.000000 0.634394
vn 0.634393 0.000000 0.773011
vn 0.471396 0.000000 0.881922
vn 0.290284 0.000000 0.956941
vn 0.098019 0.000000 0.995185
vn -0.098017 0.000000 0.995185
vn -0.290285 0.000000 0.956940
vn -0.471396 0.000000 0.881922
vn -0.634395 0.000000 0.773009
vn -0.773012 0.000000 0.634392
vn -0.881921 0.000000 0.471396
vn -0.956940 0.000000 0.290285
vn -0.995185 0.000000 0.098015
vn -0.995185 0.000000 -0.098017
vn -0.956940 0.000000 -0.290286
vn -0.881921 0.000000 -0.471398
vn -0.773009 0.000000 -0.634394
vn -0.634393 0.000000 -0.773011
vn -0.471395 0.000000 -0.881922
vn 0.000000 1.000000 -0.000006
vn -0.098017 0.000000 -0.995185
vn -0.290284 0.000000 -0.956941
vn 0.000000 -1.000000 0.000022
vn 0.881921 0.000000 -0.471397
vn 0.881921 0.000000 0.471396
vn 0.773011 0.000000 0.634393
vn 0.634394 0.000000 0.773010
vn 0.471397 0.000000 0.881921
vn 0.098017 0.000000 0.995185
vn -0.098019 0.000000 0.995185
vn -0.290287 0.000000 0.956940
vn -0.634394 0.000000 0.773010
vn -0.773011 0.000000 0.634393
vn -0.881922 0.000000 0.471396
vn -0.956940 0.000000 0.290284
vn -0.773010 0.000000 -0.634395
vn 0.000000 1.000000 0.000000
vn 0.000000 1.000000 0.000002
vn 0.000000 1.000000 0.000001
vn 0.000000 1.000000 -0.000003
vn 0.000000 1.000000 -0.000001
vn 0.000000 -1.000000 0.000000
vn 0.000000 -1.000000 -0.000003
vn 0.000000 -1.000000 0.000001
vn 0.000000 -1.000000 -0.000011
vn 0.000000 -1.000000 -0.000004
vn 0.000000 -1.000000 0.000002
usemtl None
s off
f 1/1/1 2/2/1 3/3/1
f 3/3/2 4/4/2 5/5/2
f 5/5/3 6/6/3 7/7/3
f 7/7/4 8/8/4 9/9/4
f 9/9/5 10/10/5 11/7/5
f 11/7/6 12/8/6 13/5/6
f 13/5/7 14/6/7 15/3/7
f 15/3/8 16/4/8 17/1/8
f 17/1/9 18/2/9 19/11/9
f 19/11/10 20/12/10 21/13/10
f 21/13/11 22/14/11 23/15/11
f 23/15/12 24/16/12 25/17/12
f 25/9/13 26/10/13 27/7/13
f 27/7/14 28/8/14 29/5/14
f 29/5/15 30/6/15 31/3/15
f 31/3/16 32/4/16 33/1/16
f 33/1/17 34/2/17 35/11/17
f 35/11/18 36/12/18 37/13/18
f 37/13/19 38/14/19 39/15/19
f 39/15/20 40/16/20 41/17/20
f 41/18/21 42/19/21 43/20/21
f 43/20/22 44/21/22 45/22/22
f 45/22/23 46/23/23 47/24/23
f 47/24/24 48/25/24 49/26/24
f 49/26/25 50/27/25 51/28/25
f 51/28/26 52/29/26 53/30/26
f 53/30/27 54/31/27 55/7/27
f 55/7/28 56/8/28 57/9/28
f 57/18/29 58/19/29 59/20/29
f 59/20/30 60/21/30 61/22/30
usemtl None_NONE
f 4/32/31 2/32/31 6/32/31
usemtl None
f 63/24/32 64/25/32 1/1/32
f 61/22/33 62/23/33 63/24/33
usemtl None_NONE
f 1/32/34 3/32/34 63/32/34
usemtl None
f 2/2/1 4/4/1 3/3/1
f 4/4/2 6/6/2 5/5/2
f 6/6/3 8/8/3 7/7/3
f 8/8/4 10/10/4 9/9/4
f 10/10/5 12/8/5 11/7/5
f 12/8/35 14/6/35 13/5/35
f 14/6/7 16/4/7 15/3/7
f 16/4/8 18/2/8 17/1/8
f 18/2/9 20/12/9 19/11/9
f 20/12/10 22/14/10 21/13/10
f 22/14/36 24/16/36 23/15/36
f 24/16/37 26/33/37 25/17/37
f 26/10/38 28/8/38 27/7/38
f 28/8/39 30/6/39 29/5/39
f 30/6/15 32/4/15 31/3/15
f 32/4/40 34/2/40 33/1/40
f 34/2/41 36/12/41 35/11/41
f 36/12/42 38/14/42 37/13/42
f 38/14/19 40/16/19 39/15/19
f 40/16/43 42/33/43 41/17/43
f 42/19/44 44/21/44 43/20/44
f 44/21/45 46/23/45 45/22/45
f 46/23/46 48/25/46 47/24/46
f 48/25/24 50/27/24 49/26/24
f 50/27/25 52/29/25 51/28/25
f 52/29/26 54/31/26 53/30/26
f 54/31/27 56/8/27 55/7/27
f 56/8/47 58/10/47 57/9/47
f 58/19/29 60/21/29 59/20/29
f 60/21/30 62/23/30 61/22/30
usemtl None_NONE
f 2/32/48 64/32/48 6/32/48
f 64/32/49 62/32/49 6/32/49
f 62/32/48 60/32/48 6/32/48
f 60/32/48 58/32/48 6/32/48
f 58/32/48 56/32/48 6/32/48
f 56/32/48 54/32/48 6/32/48
f 54/32/50 52/32/50 6/32/50
f 52/32/48 50/32/48 6/32/48
f 50/32/48 48/32/48 6/32/48
f 48/32/48 46/32/48 6/32/48
f 46/32/48 44/32/48 6/32/48
f 42/32/51 40/32/51 38/32/51
f 32/32/51 36/32/51 34/32/51
f 20/32/48 24/32/48 22/32/48
f 8/32/48 12/32/48 10/32/48
f 8/32/52 14/32/52 12/32/52
f 8/32/50 16/32/50 14/32/50
f 8/32/48 18/32/48 16/32/48
f 6/32/48 18/32/48 8/32/48
f 6/32/48 44/32/48 18/32/48
f 44/32/48 42/32/48 38/32/48
f 18/32/48 44/32/48 38/32/48
f 32/32/49 38/32/49 36/32/49
f 28/32/48 32/32/48 30/32/48
f 28/32/52 38/32/52 32/32/52
f 20/32/52 18/32/52 38/32/52
f 24/32/48 20/32/48 26/32/48
f 20/32/48 38/32/48 26/32/48
f 38/32/50 28/32/50 26/32/50
usemtl None
f 64/25/32 2/2/32 1/1/32
f 62/23/33 64/25/33 63/24/33
usemtl None_NONE
f 3/32/53 5/32/53 63/32/53
f 5/32/53 7/32/53 63/32/53
f 7/32/53 9/32/53 63/32/53
f 9/32/54 11/32/54 63/32/54
f 11/32/53 13/32/53 63/32/53
f 13/32/53 15/32/53 63/32/53
f 15/32/53 17/32/53 63/32/53
f 17/32/53 19/32/53 63/32/53
f 19/32/53 21/32/53 63/32/53
f 21/32/55 23/32/55 63/32/55
f 23/32/55 25/32/55 63/32/55
f 41/32/56 37/32/56 39/32/56
f 49/32/54 45/32/54 47/32/54
f 53/32/53 49/32/53 51/32/53
f 53/32/55 45/32/55 49/32/55
f 35/32/56 31/32/56 33/32/56
f 55/32/53 45/32/53 53/32/53
f 55/32/53 43/32/53 45/32/53
f 57/32/53 43/32/53 55/32/53
f 63/32/53 25/32/53 61/32/53
f 25/32/53 27/32/53 61/32/53
f 61/32/53 27/32/53 59/32/53
f 59/32/53 27/32/53 57/32/53
f 27/32/53 29/32/53 57/32/53
f 31/32/57 35/32/57 37/32/57
f 57/32/53 29/32/53 43/32/53
f 31/32/58 37/32/58 41/32/58
f 29/32/58 31/32/58 43/32/58
f 31/32/53 41/32/53 43/32/53
